<svg width="100" height="100" viewBox="0 0 100 100" fill="none" xmlns="http://www.w3.org/2000/svg">
<g clip-path="url(#clip0_94_81)">
<path d="M28.1792 41.8166C28.1792 43.05 28.3125 44.0458 28.5458 44.775C28.8125 45.5083 29.1458 46.3083 29.6125 47.175C29.7792 47.4375 29.8458 47.7041 29.8458 47.9375C29.8458 48.2708 29.6458 48.6041 29.2125 48.9375L27.1167 50.3333C26.8634 50.516 26.562 50.6203 26.25 50.6333C25.9167 50.6333 25.5833 50.4666 25.2542 50.1666C24.8066 49.6852 24.4061 49.162 24.0583 48.6041C23.6859 47.9651 23.3411 47.3103 23.025 46.6416C20.4333 49.7 17.1708 51.2291 13.2458 51.2291C10.4542 51.2291 8.22501 50.4333 6.59585 48.8375C4.96668 47.2375 4.13751 45.1125 4.13751 42.45C4.13751 39.625 5.13335 37.325 7.16251 35.6C9.19168 33.8708 11.8833 33.0041 15.3083 33.0041C16.4417 33.0041 17.6042 33.1041 18.8333 33.2708C20.0667 33.4375 21.3333 33.7041 22.6583 34.0041V31.575C22.6583 29.0458 22.1292 27.2833 21.0958 26.2541C20.0333 25.2208 18.2375 24.725 15.6792 24.725C14.5125 24.725 13.3125 24.8541 12.0833 25.1541C10.8542 25.4541 9.65418 25.8208 8.49168 26.2875C8.11265 26.4572 7.72293 26.6019 7.32501 26.7208C7.15364 26.776 6.9757 26.8083 6.79585 26.8166C6.32918 26.8166 6.09585 26.4833 6.09585 25.7875V24.1583C6.09585 23.625 6.16251 23.225 6.32918 22.9916C6.58087 22.6891 6.90074 22.4507 7.26251 22.2958C8.42501 21.6958 9.82084 21.1958 11.45 20.7958C13.1459 20.3616 14.8912 20.1501 16.6417 20.1666C20.6 20.1666 23.4917 21.0666 25.3542 22.8625C27.1833 24.6541 28.1125 27.3833 28.1125 31.0416V41.8166H28.1792ZM14.6792 46.875C15.775 46.875 16.9042 46.675 18.1042 46.275C19.3 45.875 20.3667 45.1458 21.2625 44.15C21.7958 43.5166 22.1958 42.8166 22.3958 42.0166C22.5917 41.2208 22.7292 40.2541 22.7292 39.125V37.7291C21.7198 37.4831 20.6973 37.2939 19.6667 37.1625C18.6302 37.0308 17.5865 36.964 16.5417 36.9625C14.3125 36.9625 12.6833 37.3958 11.5833 38.2958C10.4875 39.1916 9.95835 40.4541 9.95835 42.1166C9.95835 43.6791 10.3542 44.8458 11.1875 45.6416C11.9833 46.475 13.1458 46.875 14.6792 46.875ZM41.3875 50.4666C40.7875 50.4666 40.3875 50.3666 40.1208 50.1333C39.8542 49.9333 39.6208 49.4666 39.4208 48.8375L31.6083 23.125C31.4564 22.6938 31.3557 22.2463 31.3083 21.7916C31.3083 21.2583 31.575 20.9583 32.1042 20.9583H35.3667C35.9958 20.9583 36.4292 21.0625 36.6583 21.2916C36.9292 21.4916 37.1292 21.9583 37.325 22.5916L42.9167 44.6083L48.1042 22.5916C48.2708 21.925 48.4708 21.4916 48.7333 21.2916C49.1331 21.0465 49.5986 20.9301 50.0667 20.9583H52.725C53.3583 20.9583 53.7917 21.0625 54.0583 21.2916C54.3208 21.4916 54.5583 21.9583 54.6875 22.5916L59.9417 44.875L65.6958 22.5916C65.8958 21.925 66.1292 21.4916 66.3625 21.2916C66.7485 21.0466 67.2021 20.9299 67.6583 20.9583H70.7542C71.2833 20.9583 71.5875 21.2291 71.5875 21.7916C71.5875 21.9583 71.55 22.125 71.5167 22.325C71.4645 22.6093 71.3864 22.8882 71.2833 23.1583L63.2708 48.8666C63.0708 49.5333 62.8375 49.9625 62.5708 50.1625C62.1954 50.4033 61.7537 50.52 61.3083 50.4958H58.4458C57.8167 50.4958 57.3833 50.3958 57.1125 50.1625C56.85 49.9291 56.6167 49.4958 56.4875 48.8291L51.3292 27.3791L46.2042 48.7958C46.0375 49.4625 45.8417 49.8958 45.5792 50.1291C45.3083 50.3625 44.8417 50.4625 44.2458 50.4625L41.3875 50.4666ZM84.1208 51.3625C82.3917 51.3625 80.6625 51.1625 79 50.7666C77.3375 50.3666 76.0417 49.9333 75.175 49.4333C74.6417 49.1375 74.2792 48.8041 74.1458 48.5041C74.0159 48.21 73.9478 47.8923 73.9458 47.5708V45.875C73.9458 45.1791 74.2125 44.8458 74.7083 44.8458C74.9083 44.8458 75.1083 44.8791 75.3083 44.9458C75.5083 45.0125 75.8083 45.1458 76.1417 45.2791C77.2708 45.7791 78.5 46.175 79.8 46.4416C81.1292 46.7083 82.425 46.8416 83.7583 46.8416C85.85 46.8416 87.4833 46.475 88.6125 45.7416C89.1538 45.4146 89.5989 44.9502 89.9026 44.3954C90.2063 43.8407 90.3578 43.2155 90.3417 42.5833C90.3539 42.1551 90.281 41.7288 90.1272 41.3289C89.9734 40.9291 89.7418 40.5638 89.4458 40.2541C88.8458 39.625 87.7125 39.0583 86.0833 38.525L81.2625 37.025C78.8333 36.2625 77.0375 35.1333 75.9417 33.6375C74.8692 32.257 74.2832 30.5606 74.275 28.8125C74.275 27.4166 74.5792 26.1875 75.175 25.1208C75.775 24.0583 76.5708 23.125 77.5708 22.3958C78.5708 21.6291 79.6958 21.0625 81.0292 20.6666C82.3625 20.2666 83.7583 20.1 85.2208 20.1C85.95 20.1 86.7167 20.1333 87.45 20.2333C88.2125 20.3333 88.9083 20.4666 89.6083 20.6C90.275 20.7666 90.9083 20.9333 91.5042 21.1291C92.1042 21.3291 92.5708 21.5291 92.9042 21.7291C93.2968 21.9268 93.6389 22.2119 93.9042 22.5625C94.1189 22.886 94.2228 23.2706 94.2 23.6583V25.2208C94.2 25.9208 93.9333 26.2875 93.4333 26.2875C92.9907 26.2367 92.562 26.1009 92.1708 25.8875C90.1615 24.9999 87.9839 24.5578 85.7875 24.5916C83.8917 24.5916 82.3917 24.8875 81.3625 25.5208C80.3292 26.1541 79.8 27.1166 79.8 28.4791C79.8 29.4125 80.1333 30.2125 80.8 30.8416C81.4625 31.475 82.6917 32.1083 84.4542 32.675L89.1792 34.1666C91.5708 34.9333 93.3042 36 94.3333 37.3625C95.3625 38.725 95.8625 40.2875 95.8625 42.0166C95.8625 43.4458 95.5625 44.7458 95 45.875C94.4 47.0083 93.6 48.0041 92.5708 48.8041C91.5375 49.6375 90.3083 50.2333 88.8792 50.6666C87.3792 51.1291 85.8208 51.3625 84.1208 51.3625ZM90.4083 67.5292C79.4667 75.6125 63.5667 79.9 49.9 79.9C30.7417 79.9 13.4833 72.8166 0.441679 61.0416C-0.587488 60.1125 0.341679 58.8458 1.57501 59.5791C15.675 67.7583 33.0708 72.7166 51.0625 72.7166C63.2042 72.7166 76.5375 70.1875 88.8125 65C90.6417 64.1666 92.2042 66.1958 90.4083 67.5292ZM94.9667 62.3375C93.5667 60.5458 85.7167 61.475 82.1583 61.9083C81.0958 62.0416 80.9292 61.1083 81.8958 60.4083C88.1458 56.0208 98.425 57.2833 99.6208 58.7458C100.817 60.2458 99.2875 70.5208 93.4333 75.4417C92.5375 76.2083 91.6708 75.8083 92.0708 74.8125C93.4042 71.5208 96.3625 64.1041 94.9667 62.3375Z" fill="#232F3E"/>
</g>
<defs>
<clipPath id="clip0_94_81">
<rect width="100" height="100" fill="white"/>
</clipPath>
</defs>
</svg>
