<svg width="100" height="100" viewBox="0 0 100 100" fill="none" xmlns="http://www.w3.org/2000/svg">
<path d="M68.0458 75.7126V71.0834L67.9542 71.1251C66.9125 71.6292 65.7792 71.9167 64.6167 71.9709C63.4142 72.0625 62.2198 71.7113 61.2583 70.9834C60.5727 70.4542 60.0618 69.7313 59.7917 68.9084C59.4998 68.0093 59.4666 67.0463 59.6958 66.1292C59.9125 65.1917 60.4375 64.3542 61.1833 63.7584C61.85 63.2001 62.6625 62.8501 63.525 62.7501C65.0479 62.5795 66.587 62.8668 67.9458 63.5751L68.0458 63.6292V58.9751L67.8333 58.9167C66.4734 58.4827 65.0466 58.2965 63.6208 58.3667C62.322 58.3993 61.0428 58.6911 59.8583 59.2251C58.6625 59.7751 57.6083 60.5876 56.7792 61.6042C55.5141 63.2023 54.812 65.1733 54.7818 67.2113C54.7517 69.2493 55.3952 71.2403 56.6125 72.8751C57.8417 74.4501 59.5667 75.5626 61.5083 76.0251C63.5542 76.5251 65.7 76.4501 67.7042 75.8084L68.0458 75.7126ZM22.2333 75.7126V71.0834L22.1417 71.1251C21.1 71.6292 19.9667 71.9167 18.8042 71.9709C17.6016 72.0637 16.4068 71.7123 15.4458 70.9834C14.7602 70.455 14.2504 69.7317 13.9833 68.9084C13.6883 68.01 13.6536 67.0465 13.8833 66.1292C14.1 65.1917 14.6208 64.3542 15.3708 63.7584C16.0375 63.2001 16.85 62.8501 17.7125 62.7501C19.2354 62.5795 20.7745 62.8668 22.1333 63.5751L22.2333 63.6292V58.9751L22.0208 58.9167C20.6609 58.4827 19.2341 58.2965 17.8083 58.3667C16.5096 58.3997 15.2304 58.6915 14.0458 59.2251C12.8509 59.7739 11.7965 60.5875 10.9625 61.6042C9.69878 63.2027 8.99719 65.1732 8.96631 67.2107C8.93542 69.2481 9.57698 71.239 10.7917 72.8751C12.0196 74.4514 13.7478 75.5624 15.6917 76.0251C17.7375 76.5251 19.8792 76.4501 21.8875 75.8084L22.2333 75.7126ZM38.5833 71.8709L38.5667 75.8584L38.8583 75.9084C39.775 76.0792 40.6958 76.1959 41.625 76.2626C42.4375 76.3417 43.2542 76.3542 44.0708 76.3126C44.85 76.2542 45.6208 76.1084 46.3667 75.8792C47.2417 75.6292 48.0542 75.2001 48.7458 74.6084C49.3702 74.0733 49.8478 73.3878 50.1333 72.6167C50.6301 71.3277 50.6197 69.8983 50.1042 68.6167C49.8357 67.9499 49.4096 67.358 48.8625 66.8917C48.3323 66.4177 47.7115 66.0562 47.0375 65.8292L44.0292 64.7126C43.6699 64.5592 43.3783 64.2809 43.2083 63.9292C43.1427 63.785 43.1115 63.6274 43.1173 63.469C43.1231 63.3107 43.1657 63.1558 43.2417 63.0167C43.3962 62.7636 43.6185 62.5586 43.8833 62.4251C44.2204 62.2628 44.5824 62.1585 44.9542 62.1167C45.5917 62.0251 46.2375 62.0292 46.8708 62.1376C47.6208 62.2209 48.3625 62.3501 49.0917 62.5376L49.25 62.5709V58.8917L48.9625 58.8292C48.2168 58.6508 47.4614 58.5158 46.7 58.4251C45.7128 58.2959 44.7133 58.2917 43.725 58.4126C42.475 58.5251 41.2875 59.0084 40.3042 59.7876C39.6375 60.3126 39.1333 61.0084 38.8417 61.8042C38.4083 63.0126 38.4042 64.3376 38.8417 65.5501C39.0667 66.1542 39.425 66.6917 39.8917 67.1376C40.2958 67.5251 40.7542 67.8584 41.2542 68.1209C41.9083 68.4709 42.6042 68.7417 43.325 68.9334C43.5625 69.0042 43.8 69.0792 44.0333 69.1584L44.3875 69.2876L44.4875 69.3292C44.8375 69.4542 45.1625 69.6542 45.4292 69.9126C45.6167 70.0876 45.7625 70.3042 45.85 70.5417C45.9076 70.7614 45.9091 70.9921 45.8542 71.2126C45.7416 71.5681 45.4929 71.8646 45.1625 72.0376C44.8035 72.2209 44.4161 72.342 44.0167 72.3959C43.4283 72.4875 42.832 72.5169 42.2375 72.4834C41.4589 72.4225 40.6842 72.3195 39.9167 72.1751C39.5166 72.0884 39.1179 71.9953 38.7208 71.8959L38.5833 71.8709ZM28.2708 76.0167H32.6458V58.6542H28.2708V76.0167ZM78.9458 63.7834C79.4106 63.4048 79.9454 63.1216 80.5196 62.9498C81.0939 62.778 81.6964 62.721 82.2927 62.7821C82.8889 62.8433 83.4673 63.0213 83.9948 63.3061C84.5222 63.5908 84.9884 63.9767 85.3667 64.4417C85.746 64.906 86.03 65.4405 86.2024 66.0147C86.3749 66.5889 86.4324 67.1914 86.3716 67.7878C86.3108 68.3843 86.133 68.9629 85.8483 69.4905C85.5636 70.0181 85.1776 70.4843 84.7125 70.8626L84.6417 70.9209C83.6927 71.6485 82.4962 71.9749 81.3092 71.8299C80.1222 71.6849 79.0394 71.0801 78.2935 70.1454C77.5476 69.2107 77.1981 68.0207 77.3201 66.8311C77.4421 65.6415 78.0258 64.5473 78.9458 63.7834ZM72.5917 67.3417C72.6129 68.6969 72.9353 70.0304 73.5356 71.2456C74.1358 72.4608 74.9989 73.5272 76.0623 74.3676C77.1257 75.208 78.3627 75.8013 79.6837 76.1046C81.0047 76.4078 82.3766 76.4134 83.7 76.1209C85.476 75.7849 87.1079 74.9168 88.3791 73.6318C89.6503 72.3468 90.5008 70.7056 90.8176 68.9261C91.1345 67.1466 90.9027 65.3127 90.1532 63.6679C89.4037 62.0231 88.1717 60.6451 86.6208 59.7167C85.242 58.8644 83.6625 58.3916 82.0421 58.3464C80.4218 58.3011 78.8183 58.685 77.3941 59.459C75.9698 60.2331 74.7756 61.3699 73.9322 62.7542C73.0888 64.1385 72.6264 65.7211 72.5917 67.3417ZM95.6708 44.7001C95.6953 45.2577 95.934 45.7844 96.3373 46.1704C96.7406 46.5563 97.2772 46.7717 97.8354 46.7717C98.3936 46.7717 98.9303 46.5563 99.3335 46.1704C99.7368 45.7844 99.9755 45.2577 100 44.7001V39.8876C99.9755 39.3299 99.7368 38.8032 99.3335 38.4173C98.9303 38.0313 98.3936 37.8159 97.8354 37.8159C97.2772 37.8159 96.7406 38.0313 96.3373 38.4173C95.934 38.8032 95.6953 39.3299 95.6708 39.8876V44.7001ZM83.8208 44.7001C83.8624 45.2468 84.1089 45.7577 84.511 46.1304C84.9132 46.5032 85.4413 46.7103 85.9896 46.7103C86.5379 46.7103 87.066 46.5032 87.4681 46.1304C87.8703 45.7577 88.1168 45.2468 88.1583 44.7001V33.9126C88.1241 33.3612 87.881 32.8435 87.4784 32.4652C87.0758 32.0868 86.5441 31.8762 85.9917 31.8762C85.4392 31.8762 84.9075 32.0868 84.5049 32.4652C84.1024 32.8435 83.8592 33.3612 83.825 33.9126L83.8208 44.7001ZM71.7958 49.0459C71.8373 49.5916 72.0834 50.1014 72.4847 50.4734C72.8861 50.8454 73.4132 51.0521 73.9604 51.0521C74.5077 51.0521 75.0347 50.8454 75.4361 50.4734C75.8374 50.1014 76.0835 49.5916 76.125 49.0459V25.7084C76.1005 25.1507 75.8618 24.624 75.4585 24.2381C75.0553 23.8521 74.5186 23.6367 73.9604 23.6367C73.4022 23.6367 72.8656 23.8521 72.4623 24.2381C72.0591 24.624 71.8203 25.1507 71.7958 25.7084V49.0459ZM59.9708 44.7001C60.005 45.2515 60.2482 45.7691 60.6508 46.1474C61.0533 46.5258 61.585 46.7365 62.1375 46.7365C62.69 46.7365 63.2217 46.5258 63.6242 46.1474C64.0268 45.7691 64.2699 45.2515 64.3042 44.7001V33.9126C64.2797 33.3549 64.0409 32.8282 63.6377 32.4423C63.2344 32.0563 62.6978 31.8409 62.1396 31.8409C61.5814 31.8409 61.0447 32.0563 60.6415 32.4423C60.2382 32.8282 59.9995 33.3549 59.975 33.9126V44.7001M47.8917 44.7001C47.9445 45.2375 48.1953 45.7361 48.5954 46.0988C48.9955 46.4615 49.5162 46.6624 50.0562 46.6624C50.5963 46.6624 51.117 46.4615 51.5171 46.0988C51.9172 45.7361 52.168 45.2375 52.2208 44.7001V39.8876C52.1964 39.3299 51.9576 38.8032 51.5544 38.4173C51.1511 38.0313 50.6144 37.8159 50.0562 37.8159C49.4981 37.8159 48.9614 38.0313 48.5581 38.4173C48.1549 38.8032 47.9161 39.3299 47.8917 39.8876V44.7001ZM35.9333 44.7001C35.9578 45.2577 36.1966 45.7844 36.5998 46.1704C37.0031 46.5563 37.5397 46.7717 38.0979 46.7717C38.6561 46.7717 39.1928 46.5563 39.596 46.1704C39.9993 45.7844 40.238 45.2577 40.2625 44.7001V33.9126C40.238 33.3549 39.9993 32.8282 39.596 32.4423C39.1928 32.0563 38.6561 31.8409 38.0979 31.8409C37.5397 31.8409 37.0031 32.0563 36.5998 32.4423C36.1966 32.8282 35.9578 33.3549 35.9333 33.9126V44.7001ZM23.9042 49.0459C23.9286 49.6035 24.1674 50.1302 24.5706 50.5162C24.9739 50.9021 25.5106 51.1176 26.0687 51.1176C26.6269 51.1176 27.1636 50.9021 27.5669 50.5162C27.9701 50.1302 28.2089 49.6035 28.2333 49.0459V25.7084C28.2089 25.1507 27.9701 24.624 27.5669 24.2381C27.1636 23.8521 26.6269 23.6367 26.0687 23.6367C25.5106 23.6367 24.9739 23.8521 24.5706 24.2381C24.1674 24.624 23.9286 25.1507 23.9042 25.7084V49.0459ZM11.9833 44.7001C12.0309 45.2419 12.2798 45.7462 12.6808 46.1136C13.0819 46.4811 13.6061 46.6848 14.15 46.6848C14.6939 46.6848 15.2181 46.4811 15.6192 46.1136C16.0202 45.7462 16.2691 45.2419 16.3167 44.7001V33.9126C16.2922 33.3549 16.0534 32.8282 15.6502 32.4423C15.2469 32.0563 14.7103 31.8409 14.1521 31.8409C13.5939 31.8409 13.0572 32.0563 12.654 32.4423C12.2507 32.8282 12.012 33.3549 11.9875 33.9126V44.7001M0 44.7001C0.0414965 45.2457 0.287553 45.7556 0.688918 46.1276C1.09028 46.4996 1.61734 46.7063 2.16458 46.7063C2.71183 46.7063 3.23888 46.4996 3.64025 46.1276C4.04161 45.7556 4.28767 45.2457 4.32917 44.7001V39.8876C4.30469 39.3299 4.06595 38.8032 3.66269 38.4173C3.25943 38.0313 2.72277 37.8159 2.16458 37.8159C1.60639 37.8159 1.06974 38.0313 0.66648 38.4173C0.26322 38.8032 0.0244724 39.3299 0 39.8876L0 44.7001Z" fill="#1BA0D7"/>
</svg>
