<svg width="100" height="100" viewBox="0 0 100 100" fill="none" xmlns="http://www.w3.org/2000/svg">
<path d="M0 40.7708H28.2833V59.3291H0V40.7708ZM36.1083 14.3958H63.8917V32.95H36.1083V14.3958ZM36.1083 67.05H63.8917V85.6083H36.1083V67.05ZM71.6167 40.7708H100V59.3291H71.6167V40.7708ZM11.6333 14.3958C5.71667 15.8916 1.10417 22.5166 0 30.9375V33.0458H28.2833V14.3916L11.6333 14.3958ZM0 67.0458V69.3541C1 77.3791 5.31667 83.7958 10.9333 85.6041H28.3833V67.0458H0ZM100 32.9458V30.8375C98.8958 22.5125 94.2833 15.8916 88.3667 14.2875H71.6167V32.8458H100V32.9458ZM89.0667 85.7083C94.5833 83.8 98.9 77.4833 100 69.4583V67.15H71.6167V85.7083H89.0667Z" fill="#EE3124"/>
</svg>
