<svg width="100" height="100" viewBox="0 0 100 100" fill="none" xmlns="http://www.w3.org/2000/svg">
<path d="M45.05 50.0583C45.05 53.85 42.7375 55.6416 39.8417 55.6416H38.075V53.3666H39.7083C41.4542 53.3666 42.6167 52.425 42.6167 50.0583C42.6167 47.7125 41.5167 46.5416 39.6583 46.5416C37.8667 46.5416 36.5833 47.6458 36.5833 50.0125V59.5208H34.1667V44.5666H36.5833V45.8541H36.925C37.3003 45.3547 37.7896 44.9523 38.352 44.6805C38.9145 44.4087 39.5338 44.2754 40.1583 44.2916C42.825 44.2916 45.05 46.2208 45.05 50.0583ZM29.2 49.0708L27.5917 48.9083C26.325 48.7958 25.6583 48.45 25.6583 47.7125C25.6583 46.8375 26.5083 46.3375 27.7292 46.3375C28.9917 46.3375 29.7958 46.9333 29.8625 47.7833H32.1833C32.0917 45.625 30.4167 44.2916 27.75 44.2916C25.0625 44.2916 23.25 45.7166 23.25 47.8041C23.25 49.5541 24.35 50.6791 26.8542 50.9291L28.4875 51.0916C29.475 51.1833 30.1417 51.3916 30.1417 52.3333C30.1417 53.1833 29.5167 53.8 27.8917 53.8C26.3875 53.8 25.6458 53.1208 25.3875 52.2083H22.875C23.125 54.2916 24.8792 55.9166 27.8875 55.9166C30.7125 55.9166 32.5542 54.4208 32.5542 52.2166C32.5542 50.2625 31.2625 49.275 29.2 49.0708ZM54.3958 52.2083C54.0167 53.075 53.1125 53.7333 51.8292 53.7333C50.0583 53.7333 48.75 52.5833 48.75 50.1041C48.75 47.7375 49.9667 46.4291 51.85 46.4291C53.5292 46.4291 54.4917 47.4375 54.5875 48.9541H50.2417V50.7041H56.95V49.55C56.95 46.3583 54.8375 44.2916 51.825 44.2916C49.025 44.2916 46.3375 46.1958 46.3375 50.1041C46.3375 54.0083 49.025 55.9166 51.8292 55.9166C54.3917 55.9166 56.2208 54.3333 56.7875 52.2083H54.3958ZM16.3667 44.2916C13.725 44.2916 11.75 45.6666 11.5208 47.7833H14.1167C14.3 47 15.0125 46.4291 16.3667 46.4291C18.1167 46.4291 18.6875 47.3458 18.6875 48.4708V52.2625C17.7 53.3875 16.55 53.9166 15.4042 53.9166C14.2083 53.9166 13.3792 53.3416 13.3792 52.3083C13.3792 51.3208 14.025 50.7 15.2625 50.7H17.1958V48.9541H15.1958C12.4375 48.9541 10.9 50.3333 10.9 52.4458C10.9 54.4208 12.3917 55.9166 14.85 55.9166C16.2292 55.9166 17.4458 55.3625 18.3417 54.7H18.6875V55.6416H21.1V48.2416C21.1 45.5083 19.2375 44.2916 16.3667 44.2916ZM0 55.6416H2.4125V40.475H0V55.6416ZM10.1333 44.5666H7.19167L3.675 49.1833V50.6333L7.28333 55.6416H10.2708L6.04167 49.8958L10.1333 44.5666ZM97.3333 44.5666L95.3583 48.9541C94.875 50.0125 94.4167 51.0458 94.2792 51.7333H93.9333C93.7958 51.0458 93.3167 50.0333 92.8333 48.9791L90.8583 44.5666H88.1917L92.8333 54.5125L90.5333 59.5208H93.1083L100 44.5666H97.3333ZM87.6583 44.5666H84.7167L81.2042 49.1833V50.6333L84.8083 55.6416H87.7958L83.5667 49.8958L87.6583 44.5666ZM72.5542 49.0666L70.9458 48.9083C69.6833 48.7958 69.0167 48.45 69.0167 47.7125C69.0167 46.8375 69.8667 46.3375 71.0833 46.3375C72.3458 46.3375 73.15 46.9333 73.2208 47.7833H75.5417C75.45 45.625 73.7708 44.2916 71.1083 44.2916C68.4208 44.2916 66.6042 45.7166 66.6042 47.8041C66.6042 49.5541 67.7083 50.6791 70.2125 50.9291L71.8417 51.0916C72.8292 51.1833 73.4958 51.3916 73.4958 52.3333C73.4958 53.1833 72.875 53.8 71.2458 53.8C69.7458 53.8 69.0042 53.1208 68.7458 52.2083H66.2333C66.4833 54.2916 68.2375 55.9166 71.2458 55.9166C74.0708 55.9166 75.9125 54.4208 75.9125 52.2166C75.9125 50.2625 74.6208 49.275 72.5542 49.0708V49.0666ZM77.525 55.6416H79.9417V40.475H77.525V55.6416ZM61.6208 45.85H61.275V44.5666H58.8625V55.6416H61.275V49.85C61.275 47.875 62.1875 46.725 63.9833 46.725H65.5125V44.2916H64.6292C62.9625 44.2916 62.2542 44.9166 61.6208 45.8541V45.85Z" fill="#006D5C"/>
</svg>
