<svg width="100" height="100" viewBox="0 0 100 100" fill="none" xmlns="http://www.w3.org/2000/svg">
<path d="M27.0417 79.3333H26.0833L21.375 74.5833V73.625L28.5833 66.5H33.5833L34.2083 67.125V72.125L27.0833 79.3333H27.0417ZM21.375 26.2917V25.4167L26.0833 20.7083H27.0417L34.1667 27.8333V32.8333L33.5417 33.4583H28.5417L21.375 26.2917ZM62.875 64.1667H56L55.4167 63.625V47.6667C55.4167 44.8333 54.2917 42.6667 50.8333 42.5417C49.0833 42.5417 47.0833 42.5417 44.875 42.625L44.5833 42.9583V63.625L44 64.2083H37.0833L36.5417 63.625V36.375L37.0833 35.7917H52.5C53.9262 35.7862 55.3394 36.0623 56.6585 36.6043C57.9777 37.1463 59.1769 37.9434 60.1873 38.9499C61.1977 39.9564 61.9994 41.1525 62.5464 42.4696C63.0934 43.7867 63.375 45.1988 63.375 46.625V63.625L62.8333 64.2083L62.875 64.1667ZM28 54H0.583333L0 53.4167V46.5833L0.583333 46H28L28.5833 46.5833V53.4167L28 54ZM99.4167 54H72L71.4167 53.4167V46.5833L72 46H99.4167L100 46.5833V53.4167L99.4167 54ZM46.0417 27.2917V6.83333L46.625 6.25H53.5L54.0833 6.83333V27.25L53.5 27.8333H46.625L46.0417 27.2917ZM46.0417 93.1667V72.75L46.625 72.1667H53.5L54.0833 72.7083V93.1667L53.5 93.75H46.625L46.0417 93.1667Z" fill="#00C7B7"/>
</svg>
